<svg xmlns="http://www.w3.org/2000/svg" viewBox="0 0 731.63 40.25"><defs><style>.cls-1{fill:#231815;}</style></defs><title>자산 1</title><g id="레이어_2" data-name="레이어 2"><g id="레이어_1-2" data-name="레이어 1"><path class="cls-1" d="M56.33,20.53h8.88v0a6.76,6.76,0,0,1-.58,2.78A7.54,7.54,0,0,1,63,25.66a7.7,7.7,0,0,1-2.4,1.58,7.4,7.4,0,0,1-2.92.59A7.9,7.9,0,0,1,54,27a7.32,7.32,0,0,1-2.59-2.23,9.6,9.6,0,0,1-1.5-3.35,17.24,17.24,0,0,1-.48-4.15,17.52,17.52,0,0,1,.48-4.17,10.42,10.42,0,0,1,1.5-3.44,7.3,7.3,0,0,1,6.32-3.19A6.28,6.28,0,0,1,60.15,7a7.14,7.14,0,0,1,3.52,3.19,7.52,7.52,0,0,1,.79,2.34h5.88A14.1,14.1,0,0,0,68.67,8a12.89,12.89,0,0,0-2.81-3.38A11.79,11.79,0,0,0,62.13,2.5a13.33,13.33,0,0,0-4.38-.73A15.16,15.16,0,0,0,51.35,3,12.55,12.55,0,0,0,46.91,6.4a14,14,0,0,0-2.58,4.94,20.7,20.7,0,0,0-.83,5.94,20.07,20.07,0,0,0,.85,5.94,13.8,13.8,0,0,0,2.56,4.83,12.08,12.08,0,0,0,4.32,3.25,14.43,14.43,0,0,0,6.1,1.2,11.18,11.18,0,0,0,2.4-.27,13.22,13.22,0,0,0,2.38-.77,9.6,9.6,0,0,0,2.1-1.24,8.62,8.62,0,0,0,1.67-1.69L66.26,32h4.58V15.57H56.33Z"/><rect class="cls-1" x="76.8" y="2.02" width="5.79" height="29.93"/><polygon class="cls-1" points="102.9 25.58 96.48 2.02 88.14 2.02 88.14 31.95 93.73 31.95 93.73 9.74 100.02 31.95 105.73 31.95 111.9 9.82 111.9 31.95 117.61 31.95 117.61 2.02 109.23 2.02 102.9 25.58"/><path class="cls-1" d="M145.37,6.26a10,10,0,0,0-3.83-3.11A13.67,13.67,0,0,0,135.66,2H123.28V32h12.38a13.68,13.68,0,0,0,5.88-1.12,10,10,0,0,0,3.83-3.11A12.46,12.46,0,0,0,147.46,23a26.84,26.84,0,0,0,.62-6,26.84,26.84,0,0,0-.62-6A12.46,12.46,0,0,0,145.37,6.26Zm-3.64,15.4a9.19,9.19,0,0,1-1.25,3.1,4.8,4.8,0,0,1-2,1.73,6.51,6.51,0,0,1-2.7.55h-6.67V6.94h6.29a7.25,7.25,0,0,1,2.86.54,5.16,5.16,0,0,1,2.14,1.76,8.69,8.69,0,0,1,1.34,3.1,20.55,20.55,0,0,1,.45,4.65A21.53,21.53,0,0,1,141.73,21.66Z"/><path class="cls-1" d="M177.12,6.19a12.75,12.75,0,0,0-4.46-3.27,16.28,16.28,0,0,0-12.22,0A12.92,12.92,0,0,0,156,6.19a14,14,0,0,0-2.77,4.92,19.26,19.26,0,0,0-.94,6.13,18.42,18.42,0,0,0,.94,6A13.62,13.62,0,0,0,156,28a13.35,13.35,0,0,0,4.48,3.23,16.41,16.41,0,0,0,12.22,0A13,13,0,0,0,177.12,28a14,14,0,0,0,2.75-4.83,18.58,18.58,0,0,0,.94-5.94,19.54,19.54,0,0,0-.94-6.13A14.25,14.25,0,0,0,177.12,6.19Zm-2.69,15.13a10.32,10.32,0,0,1-1.61,3.35A7.85,7.85,0,0,1,170.2,27a8.35,8.35,0,0,1-7.3,0,7.76,7.76,0,0,1-2.62-2.28,10.32,10.32,0,0,1-1.61-3.35,14.9,14.9,0,0,1-.54-4.08,16.17,16.17,0,0,1,.54-4.25,10.56,10.56,0,0,1,1.61-3.45,8,8,0,0,1,9.92-2.3,7.7,7.7,0,0,1,2.62,2.3A10.56,10.56,0,0,1,174.43,13a16.17,16.17,0,0,1,.54,4.25A14.9,14.9,0,0,1,174.43,21.32Z"/><polygon class="cls-1" points="204.28 23.62 192.48 2.02 185.68 2.02 185.68 31.95 191.27 31.95 191.27 9.74 203.23 31.95 209.99 31.95 209.99 2.02 204.28 2.02 204.28 23.62"/><path class="cls-1" d="M227.7,20.53h8.88v0a6.76,6.76,0,0,1-.58,2.78,7.57,7.57,0,0,1-1.61,2.31A7.66,7.66,0,0,1,232,27.24a7.4,7.4,0,0,1-2.92.59,7.87,7.87,0,0,1-3.73-.82,7.16,7.16,0,0,1-2.59-2.23,9.6,9.6,0,0,1-1.5-3.35,17.24,17.24,0,0,1-.48-4.15,17.52,17.52,0,0,1,.48-4.17,10.42,10.42,0,0,1,1.5-3.44,7.43,7.43,0,0,1,2.59-2.33,7.64,7.64,0,0,1,3.73-.86,6.28,6.28,0,0,1,2.44.48A7.14,7.14,0,0,1,235,10.15a7.52,7.52,0,0,1,.79,2.34h5.88A14.34,14.34,0,0,0,240,8a13.29,13.29,0,0,0-2.81-3.38A11.79,11.79,0,0,0,233.5,2.5a13.33,13.33,0,0,0-4.38-.73A15.13,15.13,0,0,0,222.72,3a12.55,12.55,0,0,0-4.44,3.38,13.8,13.8,0,0,0-2.58,4.94,20.7,20.7,0,0,0-.84,5.94,20.07,20.07,0,0,0,.86,5.94,13.8,13.8,0,0,0,2.56,4.83,12.08,12.08,0,0,0,4.32,3.25,14.43,14.43,0,0,0,6.1,1.2,11.18,11.18,0,0,0,2.4-.27,13.22,13.22,0,0,0,2.38-.77,9.6,9.6,0,0,0,2.1-1.24,8.91,8.91,0,0,0,1.67-1.69l.37,3.42h4.59V15.57H227.7Z"/><polygon class="cls-1" points="266.85 13.95 253.92 13.95 253.92 2.02 248.13 2.02 248.13 31.95 253.92 31.95 253.92 18.91 266.85 18.91 266.85 31.95 272.64 31.95 272.64 2.02 266.85 2.02 266.85 13.95"/><polygon class="cls-1" points="308.78 2.02 303.4 25.28 298.4 2.02 291.86 2.02 286.81 25.24 281.56 2.02 275.64 2.02 283.23 31.95 290.06 31.95 295.11 10.32 300.23 31.95 307.07 31.95 314.57 2.02 308.78 2.02"/><path class="cls-1" d="M323.91,2,313.53,32h5.92l2.13-6.33h11L334.75,32h5.92L330.25,2Zm-.79,18.64,4-12.13,4,12.13Z"/><polygon class="cls-1" points="362.51 23.62 350.71 2.02 343.92 2.02 343.92 31.95 349.51 31.95 349.51 9.74 361.47 31.95 368.22 31.95 368.22 2.02 362.51 2.02 362.51 23.62"/><path class="cls-1" d="M403.8,28.08a.86.86,0,0,1-.52-.15.59.59,0,0,1-.21-.52v-11a7.81,7.81,0,0,0-.4-2.42,5.6,5.6,0,0,0-1.39-2.27,7.4,7.4,0,0,0-2.69-1.67,12.1,12.1,0,0,0-4.27-.65,13.73,13.73,0,0,0-3.46.42A8.63,8.63,0,0,0,388,11.17a7.17,7.17,0,0,0-2.06,2.36,9.64,9.64,0,0,0-1.07,3.54h5.76a4.14,4.14,0,0,1,.62-1.5,3.82,3.82,0,0,1,.92-.92,2.84,2.84,0,0,1,1-.43,5.35,5.35,0,0,1,1-.11,3.43,3.43,0,0,1,2.46.71,3,3,0,0,1,.71,2.17v.79a34.1,34.1,0,0,0-5.36.69,15.84,15.84,0,0,0-4.1,1.44,7.44,7.44,0,0,0-2.65,2.27,5.74,5.74,0,0,0-1,3.23,8.39,8.39,0,0,0,.27,2.71,5.88,5.88,0,0,0,1.21,2.29A6,6,0,0,0,388,32a8.29,8.29,0,0,0,3.23.58,11.51,11.51,0,0,0,3.69-.58,10.24,10.24,0,0,0,3.27-1.92,4.82,4.82,0,0,0,1.77,1.58,5,5,0,0,0,2.36.59,6.61,6.61,0,0,0,1.48-.15,11.35,11.35,0,0,0,1.44-.44V27.79a5.29,5.29,0,0,1-.71.2A3,3,0,0,1,403.8,28.08Zm-6.44-2a13.13,13.13,0,0,1-3,1.49,8.13,8.13,0,0,1-2.42.37,1.86,1.86,0,0,1-1.37-.54,2.48,2.48,0,0,1-.63-1.61A2.86,2.86,0,0,1,391.9,23a17.28,17.28,0,0,1,5.46-1.07Z"/><rect class="cls-1" x="408.41" y="2.02" width="5.79" height="29.93"/><rect class="cls-1" x="419.16" y="2.02" width="5.79" height="29.93"/><path class="cls-1" d="M452.8,9.44a5.88,5.88,0,0,0-3.13.94,6.55,6.55,0,0,0-2.25,2.77V9.86h-5.79V32h5.79V18.75a4.57,4.57,0,0,1,.75-1.9,6,6,0,0,1,1.42-1.46,6.67,6.67,0,0,1,1.79-.94,5.64,5.64,0,0,1,1.92-.34c.2,0,.44,0,.73.05a3.55,3.55,0,0,1,.9.24V9.74a5.93,5.93,0,0,0-1.13-.25A9.37,9.37,0,0,0,452.8,9.44Z"/><rect class="cls-1" x="457.8" y="2.02" width="5.79" height="5"/><rect class="cls-1" x="457.8" y="9.86" width="5.79" height="22.09"/><path class="cls-1" d="M482.44,12.35A4.84,4.84,0,0,0,480,10.1a8.42,8.42,0,0,0-3.4-.66,8,8,0,0,0-4,1A8.47,8.47,0,0,0,469.79,13a11.69,11.69,0,0,0-1.65,3.69,16.44,16.44,0,0,0-.54,4.19,15.43,15.43,0,0,0,.58,4.31,11,11,0,0,0,1.73,3.55,8.49,8.49,0,0,0,2.82,2.41,8,8,0,0,0,3.87.9,7.72,7.72,0,0,0,3.07-.61,8.47,8.47,0,0,0,2.77-2v2.44a3.84,3.84,0,0,1-1.15,2.88A4.46,4.46,0,0,1,478,35.91c-2.45,0-3.93-.83-4.46-2.5h-5.17a7.79,7.79,0,0,0,3,5.11,10.5,10.5,0,0,0,6.3,1.73q5.42,0,7.92-2.58c1.66-1.72,2.5-4.43,2.5-8.12V9.84h-5.67Zm0,10.25a5.23,5.23,0,0,1-.31,1.74,5.08,5.08,0,0,1-.88,1.56A4.5,4.5,0,0,1,479.9,27a3.91,3.91,0,0,1-1.8.41,4,4,0,0,1-3.56-1.82,8.79,8.79,0,0,1-1.19-4.85,10.91,10.91,0,0,1,.27-2.46,6.79,6.79,0,0,1,.86-2.12,4.64,4.64,0,0,1,1.5-1.49,4.27,4.27,0,0,1,2.25-.56,3.65,3.65,0,0,1,1.79.44,3.91,3.91,0,0,1,1.31,1.14,5.72,5.72,0,0,1,.82,1.57,5.57,5.57,0,0,1,.29,1.74Z"/><path class="cls-1" d="M511.14,11.63A6.86,6.86,0,0,0,508.7,10a8.87,8.87,0,0,0-3.33-.59,9.09,9.09,0,0,0-3.11.6,9.22,9.22,0,0,0-2.94,1.72V2h-5.79V32h5.79V16.2a7.7,7.7,0,0,1,5.25-2.09c1.84,0,2.75,1,2.75,3V32h5.8V17.07a9,9,0,0,0-.5-3A6.72,6.72,0,0,0,511.14,11.63Z"/><path class="cls-1" d="M527.17,28a1.54,1.54,0,0,1-1.44-.59,2.18,2.18,0,0,1-.36-1.16V14.61h3.88V9.86h-3.88V3.23h-5.79V9.86h-3.25v4.75h3.25V26.12a6.47,6.47,0,0,0,1.5,4.67,7,7,0,0,0,4.75,1.75,16.13,16.13,0,0,0,1.71,0c.67,0,1.31-.09,1.92-.17V27.91a14.5,14.5,0,0,1-1.54.13Z"/><path class="cls-1" d="M549.07,21.7a6.92,6.92,0,0,0-1.73-1.27,14.09,14.09,0,0,0-2.42-1l-3.46-1.17a10.9,10.9,0,0,1-2.71-1.19,1.71,1.71,0,0,1-.79-1.44,1.48,1.48,0,0,1,.67-1.21,3.5,3.5,0,0,1,2.08-.5,4.25,4.25,0,0,1,2.61.67,2.92,2.92,0,0,1,1.06,1.88h5.42q-.75-7.12-9-7.13a12.13,12.13,0,0,0-3.54.48,8.16,8.16,0,0,0-2.69,1.33,5.93,5.93,0,0,0-1.69,2,5.4,5.4,0,0,0-.59,2.48,6,6,0,0,0,1.19,3.78,8.48,8.48,0,0,0,4.07,2.48l4,1.29a11.41,11.41,0,0,1,2.31,1,1.7,1.7,0,0,1,.86,1.58,1.93,1.93,0,0,1-.79,1.65,5,5,0,0,1-2.75.56,3.7,3.7,0,0,1-2.78-.9,4.53,4.53,0,0,1-1.1-2.52H532a11.33,11.33,0,0,0,.77,3.3,7.51,7.51,0,0,0,1.69,2.5,7.28,7.28,0,0,0,2.71,1.6,11.6,11.6,0,0,0,3.84.56,16.2,16.2,0,0,0,3.91-.43,9.15,9.15,0,0,0,3-1.3,5.74,5.74,0,0,0,1.9-2.14,6.5,6.5,0,0,0,.67-3,6,6,0,0,0-.36-2.18A4.58,4.58,0,0,0,549.07,21.7Z"/><path class="cls-1" d="M577.1,9.44a5.87,5.87,0,0,0-3.12.94,6.4,6.4,0,0,0-2.25,2.77V9.86h-5.8V32h5.8V18.75a4.57,4.57,0,0,1,.75-1.9,5.8,5.8,0,0,1,1.42-1.46,6.53,6.53,0,0,1,1.79-.94,5.64,5.64,0,0,1,1.92-.34c.19,0,.43,0,.72.05a3.44,3.44,0,0,1,.9.24V9.74a5.86,5.86,0,0,0-1.12-.25A9.57,9.57,0,0,0,577.1,9.44Z"/><path class="cls-1" d="M598.72,13.05a9.25,9.25,0,0,0-3.25-2.63,10.41,10.41,0,0,0-4.65-1,10.72,10.72,0,0,0-4.56.9A9.15,9.15,0,0,0,583,12.8a10.47,10.47,0,0,0-1.93,3.69,15.56,15.56,0,0,0-.65,4.63,14.06,14.06,0,0,0,.65,4.31,10.73,10.73,0,0,0,2,3.67,9.38,9.38,0,0,0,3.23,2.54,10,10,0,0,0,4.5.94,12.45,12.45,0,0,0,3.4-.46,10.23,10.23,0,0,0,3-1.37,9.58,9.58,0,0,0,2.35-2.32A9.89,9.89,0,0,0,601,25.2h-5.75a3.65,3.65,0,0,1-1.63,2,4.81,4.81,0,0,1-2.5.69,4.41,4.41,0,0,1-3.46-1.35,6.43,6.43,0,0,1-1.5-3.4h15c0-.19,0-.49,0-.9s0-.7,0-.89a16.36,16.36,0,0,0-.62-4.53A11.35,11.35,0,0,0,598.72,13.05Zm-12.53,6a7.81,7.81,0,0,1,.4-1.82,5.08,5.08,0,0,1,.89-1.6,4.44,4.44,0,0,1,1.42-1.12,4.24,4.24,0,0,1,1.92-.42,4,4,0,0,1,3.31,1.54,5.06,5.06,0,0,1,.88,1.6,7.31,7.31,0,0,1,.39,1.82Z"/><path class="cls-1" d="M621.4,21.7a7.11,7.11,0,0,0-1.73-1.27,14.8,14.8,0,0,0-2.42-1l-3.46-1.17a10.73,10.73,0,0,1-2.71-1.19,1.68,1.68,0,0,1-.79-1.44A1.49,1.49,0,0,1,611,14.4a3.53,3.53,0,0,1,2.09-.5,4.23,4.23,0,0,1,2.6.67,2.93,2.93,0,0,1,1.07,1.88h5.41q-.75-7.12-9-7.13a12.22,12.22,0,0,0-3.54.48,8.26,8.26,0,0,0-2.69,1.33,5.93,5.93,0,0,0-1.69,2,5.39,5.39,0,0,0-.58,2.48,5.93,5.93,0,0,0,1.19,3.78,8.39,8.39,0,0,0,4.06,2.48l4,1.29a11.29,11.29,0,0,1,2.32,1,1.69,1.69,0,0,1,.85,1.58,1.9,1.9,0,0,1-.79,1.65,5,5,0,0,1-2.75.56,3.67,3.67,0,0,1-2.77-.9,4.53,4.53,0,0,1-1.11-2.52h-5.37a11,11,0,0,0,.77,3.3,7,7,0,0,0,4.39,4.1,11.69,11.69,0,0,0,3.84.56,16.34,16.34,0,0,0,3.92-.43,9.24,9.24,0,0,0,3-1.3,5.71,5.71,0,0,0,1.89-2.14,6.5,6.5,0,0,0,.67-3,6.27,6.27,0,0,0-.35-2.18A4.87,4.87,0,0,0,621.4,21.7Z"/><path class="cls-1" d="M643.91,13.05a9.29,9.29,0,0,0-3.26-2.63,10.4,10.4,0,0,0-4.64-1,10.77,10.77,0,0,0-4.57.9,9.11,9.11,0,0,0-3.23,2.46,10.49,10.49,0,0,0-1.94,3.69,15.9,15.9,0,0,0-.64,4.63,14.37,14.37,0,0,0,.64,4.31,10.9,10.9,0,0,0,2,3.67,9.48,9.48,0,0,0,3.23,2.54,10.08,10.08,0,0,0,4.5.94,12.45,12.45,0,0,0,3.4-.46,10,10,0,0,0,3-1.37,9.45,9.45,0,0,0,2.36-2.32,9.89,9.89,0,0,0,1.5-3.23h-5.75a3.65,3.65,0,0,1-1.63,2,4.83,4.83,0,0,1-2.5.69,4.41,4.41,0,0,1-3.46-1.35,6.28,6.28,0,0,1-1.5-3.4h15c0-.19,0-.49,0-.9s0-.7,0-.89a16,16,0,0,0-.63-4.53A11.33,11.33,0,0,0,643.91,13.05Zm-12.53,6a7.79,7.79,0,0,1,.39-1.82,4.92,4.92,0,0,1,.9-1.6,4.33,4.33,0,0,1,1.42-1.12,4.18,4.18,0,0,1,1.92-.42,4.13,4.13,0,0,1,1.93.42,4.18,4.18,0,0,1,1.38,1.12,5.06,5.06,0,0,1,.88,1.6,7.79,7.79,0,0,1,.39,1.82Z"/><path class="cls-1" d="M661.68,9.44a5.84,5.84,0,0,0-3.12.94,6.4,6.4,0,0,0-2.25,2.77V9.86h-5.8V32h5.8V18.75a4.57,4.57,0,0,1,.75-1.9,5.93,5.93,0,0,1,1.41-1.46,6.73,6.73,0,0,1,1.8-.94,5.58,5.58,0,0,1,1.91-.34c.2,0,.44,0,.73.05a3.44,3.44,0,0,1,.9.24V9.74a5.77,5.77,0,0,0-1.13-.25A9.23,9.23,0,0,0,661.68,9.44Z"/><polygon class="cls-1" points="675.11 25.45 670.52 9.86 664.73 9.86 671.9 31.95 678.23 31.95 685.36 9.86 679.61 9.86 675.11 25.45"/><path class="cls-1" d="M705.72,13.05a9.17,9.17,0,0,0-3.25-2.63,10.41,10.41,0,0,0-4.65-1,10.72,10.72,0,0,0-4.56.9A9.11,9.11,0,0,0,690,12.8a10.49,10.49,0,0,0-1.94,3.69,15.89,15.89,0,0,0-.65,4.63,14.37,14.37,0,0,0,.65,4.31,10.73,10.73,0,0,0,2,3.67,9.48,9.48,0,0,0,3.23,2.54,10.08,10.08,0,0,0,4.5.94,12.45,12.45,0,0,0,3.4-.46,10,10,0,0,0,3-1.37,9.62,9.62,0,0,0,2.36-2.32A10.32,10.32,0,0,0,708,25.2h-5.76a3.59,3.59,0,0,1-1.62,2,4.83,4.83,0,0,1-2.5.69,4.4,4.4,0,0,1-3.46-1.35,6.28,6.28,0,0,1-1.5-3.4h15c0-.19,0-.49,0-.9s0-.7,0-.89a16,16,0,0,0-.63-4.53A11.35,11.35,0,0,0,705.72,13.05Zm-12.52,6a7.31,7.31,0,0,1,.39-1.82,4.92,4.92,0,0,1,.9-1.6,4.33,4.33,0,0,1,1.42-1.12,4.62,4.62,0,0,1,3.85,0,4.29,4.29,0,0,1,1.38,1.12,5,5,0,0,1,.87,1.6,7.81,7.81,0,0,1,.4,1.82Z"/><path class="cls-1" d="M725.79,2V12.51a4.57,4.57,0,0,0-1.16-1.41,8,8,0,0,0-1.48-.92,6.23,6.23,0,0,0-1.57-.5,7.62,7.62,0,0,0-1.41-.15,8.51,8.51,0,0,0-4.17.94,7.76,7.76,0,0,0-2.77,2.5,11.09,11.09,0,0,0-1.57,3.6,18.22,18.22,0,0,0-.5,4.3,20.29,20.29,0,0,0,.46,4.23,11.79,11.79,0,0,0,1.5,3.75,7.86,7.86,0,0,0,7.09,3.73,7,7,0,0,0,3.1-.77,5.86,5.86,0,0,0,2.53-2.52V32h5.79V2Zm0,21.11a6,6,0,0,1-.25,1.73,4.37,4.37,0,0,1-.79,1.53,4,4,0,0,1-1.37,1.11,4.46,4.46,0,0,1-2,.41,3.51,3.51,0,0,1-2.25-.69,4.67,4.67,0,0,1-1.38-1.7,8,8,0,0,1-.69-2.22,15.32,15.32,0,0,1-.18-2.25,14.92,14.92,0,0,1,.2-2.51,7.4,7.4,0,0,1,.73-2.2,4.4,4.4,0,0,1,1.36-1.56,3.52,3.52,0,0,1,2.08-.58,4.16,4.16,0,0,1,3.36,1.58,5.08,5.08,0,0,1,.85,1.57,5.4,5.4,0,0,1,.29,1.75Z"/><path class="cls-1" d="M20.53,19.47a3.73,3.73,0,0,1-1,2.13,2.87,2.87,0,0,1-2,.64A2.81,2.81,0,0,1,15,21a6.66,6.66,0,0,1-.87-3.91,8.74,8.74,0,0,1,.28-2.19,4.65,4.65,0,0,1,.68-1.58,2.94,2.94,0,0,1,1-.89,3.55,3.55,0,0,1,1.57-.32,3,3,0,0,1,1.95.62,3,3,0,0,1,.85,1.91l.11,1,5.15.09-.18-1.29A8.13,8.13,0,0,0,23,9.27a8.22,8.22,0,0,0-5.19-1.83,8.88,8.88,0,0,0-3.62.66,7.62,7.62,0,0,0-2.72,2.05,8.36,8.36,0,0,0-1.71,3.06A11.57,11.57,0,0,0,9.09,17a10.41,10.41,0,0,0,2.06,7.08,7.79,7.79,0,0,0,6.32,2.79h.21a7.66,7.66,0,0,0,5.26-1.79,8.42,8.42,0,0,0,2.65-5.17l.22-1.28-5.1-.09Z"/><path class="cls-1" d="M30.19,5.3A18.66,18.66,0,0,0,24.7,1.49a17.63,17.63,0,0,0-13.65-.23A18.1,18.1,0,0,0,5.4,4.86a17.54,17.54,0,0,0-3.87,5.4A16.37,16.37,0,0,0,0,17a15.84,15.84,0,0,0,1.28,6.76A17.44,17.44,0,0,0,5,29.35a18.29,18.29,0,0,0,5.54,3.81,17.88,17.88,0,0,0,6.77,1.45h.32a18.27,18.27,0,0,0,6.56-1.22,18.41,18.41,0,0,0,5.6-3.6,17.88,17.88,0,0,0,3.88-5.45,16.64,16.64,0,0,0,1.52-6.72,17,17,0,0,0-1.28-6.79A18.1,18.1,0,0,0,30.19,5.3ZM17.33,30.51a13.33,13.33,0,0,1-5.2-1.1,13.14,13.14,0,0,1-4.23-3,12.42,12.42,0,0,1-2.81-4.25,12.3,12.3,0,0,1-1-5.12A12.26,12.26,0,0,1,5.29,12a13.06,13.06,0,0,1,3-4.14,13.67,13.67,0,0,1,4.32-2.77,13.39,13.39,0,0,1,5-.92h.27A13.66,13.66,0,0,1,23,5.23a14.57,14.57,0,0,1,4.26,2.92,14.41,14.41,0,0,1,2.82,4.24A12.83,12.83,0,0,1,31,17.54a12.84,12.84,0,0,1-1.11,5.1,13.34,13.34,0,0,1-3,4.15,14.44,14.44,0,0,1-4.35,2.8A13.61,13.61,0,0,1,17.33,30.51Z"/></g></g></svg>